<?xml version="1.0" encoding="UTF-8"?>
<svg xmlns="http://www.w3.org/2000/svg" xmlns:xlink="http://www.w3.org/1999/xlink" id="Gradient" viewBox="0 0 512 512" width="512" height="512"><defs><linearGradient id="linear-gradient" x1="256" y1="496" x2="256" y2="16" gradientUnits="userSpaceOnUse"><stop offset="0" stop-color="#12bee5"/><stop offset="0.5" stop-color="#c071e9"/><stop offset="1" stop-color="#f24f5a"/></linearGradient></defs><path d="M146.343,237.657a8,8,0,0,0,11.314,0L192,203.313,204.687,216,136,284.687l-1.373-1.373a32,32,0,0,0-45.254,0l-47.03,47.029a8,8,0,0,0,0,11.314l128,128a8,8,0,0,0,11.314,0l47.029-47.03a32,32,0,0,0,0-45.254L227.313,376,296,307.313,308.687,320l-34.344,34.343a8,8,0,0,0,0,11.314l128,128a8,8,0,0,0,11.314,0l80-80a8,8,0,0,0,0-11.314l-128-128a8,8,0,0,0-11.314,0L320,308.687,307.313,296l49.373-49.373a32.035,32.035,0,0,0,0-45.254L339.313,184l19.168-19.167A55.951,55.951,0,0,0,431.6,159.6a8,8,0,0,0,0-11.314L403.313,120l18.344-18.343a8,8,0,0,0-11.314-11.314L392,108.687,363.716,80.4a8,8,0,0,0-11.314,0,55.951,55.951,0,0,0-5.235,73.117L328,172.687l-17.373-17.373a32.033,32.033,0,0,0-45.254,0L216,204.687,203.313,192l34.344-34.343a8,8,0,0,0,0-11.314l-128-128a8,8,0,0,0-11.314,0l-80,80a8,8,0,0,0,0,11.314ZM320,331.314,340.687,352,312,380.686,291.314,360Zm66.108,66.107L404.687,416,376,444.686,355.314,424,384,395.313Zm11.313-11.313L395.313,384,424,355.314,444.686,376,416,404.687ZM384,372.687,363.313,352,392,323.314,412.686,344ZM372.687,384,344,412.686,323.314,392,352,363.313ZM408,476.686,387.314,456,416,427.313,436.686,448Zm40-40L427.313,416,456,387.314,476.686,408ZM360,291.314,380.686,312,352,340.687,331.314,320ZM358.621,97.935l55.444,55.444a40.018,40.018,0,0,1-55.444-55.444ZM217.373,411.314,176,452.687,59.313,336l41.373-41.373a16,16,0,0,1,22.628,0l94.059,94.059a16,16,0,0,1,0,22.628ZM216,364.687,147.313,296,216,227.313,224.687,236l-6.344,6.343a8,8,0,0,0,11.314,11.314L236,247.313,244.687,256l-18.344,18.343a8,8,0,0,0,11.314,11.314L256,267.313,264.687,276l-6.344,6.343a8,8,0,0,0,11.314,11.314L276,287.313,284.687,296Zm60.686-198.06a16.02,16.02,0,0,1,22.628,0l46.059,46.059a16.02,16.02,0,0,1,0,22.628L296,284.687,287.313,276l6.344-6.343a8,8,0,0,0-11.314-11.314L276,264.687,267.313,256l34.344-34.343a8,8,0,0,0-11.314-11.314L256,244.687,247.313,236l6.344-6.343a8,8,0,0,0-11.314-11.314L236,224.687,227.313,216ZM139.313,128,168,99.314,188.686,120,160,148.687Zm9.374,32L120,188.686,99.314,168,128,139.313ZM128,116.687l-2.108-2.108L107.313,96,136,67.314,156.686,88Zm-13.421,9.2L116.687,128,88,156.686,67.314,136,96,107.313ZM152,220.686,131.314,200,160,171.313,180.686,192Zm40-40L171.313,160,200,131.314,220.686,152ZM104,35.314,124.686,56,96,84.687,75.314,64Zm-40,40L84.687,96,56,124.686,35.314,104Zm403.81,58.262A64,64,0,0,0,378.425,44.19a8,8,0,0,1-9.409-12.941A80,80,0,0,1,480.751,142.984a8,8,0,1,1-12.941-9.408Zm-23.7-22.289a32,32,0,0,0-43.4-43.4,8,8,0,0,1-7.686-14.033,48,48,0,0,1,65.119,65.119,8,8,0,0,1-14.033-7.686ZM189.657,402.343a8,8,0,0,1-11.314,11.314l-8-8a8,8,0,0,1,11.314-11.314Zm-32-32a8,8,0,0,1-11.314,11.314l-16-16a8,8,0,0,1,11.314-11.314Zm-40-40a8,8,0,0,1-11.314,11.314l-8-8a8,8,0,0,1,11.314-11.314Z" style="fill:url(#linear-gradient)"/></svg>
